M48
; DRILL file KiCad 10.0.3 date 2026-09-11T14:12:07
; FORMAT={-:-/ absolute / metric / decimal}
; #@! TF.CreationDate,2026-09-11T14:12:07+02:00
; #@! TF.GenerationSoftware,Kicad,Pcbnew,10.0.3
; #@! TF.FileFunction,Plated,1,2,PTH
FMAT,2
METRIC
; #@! TA.AperFunction,Plated,PTH,ComponentDrill
T1C0.800
; #@! TA.AperFunction,Plated,PTH,ComponentDrill
T2C1.016
%
G90
G05
T1
X49.53Y-41.91
X49.53Y-49.53
X49.53Y-55.88
X49.53Y-63.5
X54.61Y-41.91
X54.61Y-49.53
X55.88Y-53.34
X55.88Y-58.34
X61.805Y-49.105
X61.805Y-51.645
X61.805Y-54.185
X61.805Y-56.725
X61.805Y-59.265
X61.805Y-61.805
X64.345Y-46.565
X64.345Y-49.105
X64.345Y-51.645
X64.345Y-54.185
X64.345Y-56.725
X64.345Y-59.265
X64.345Y-61.805
X64.345Y-64.345
X66.885Y-46.565
X66.885Y-49.105
X66.885Y-61.805
X66.885Y-64.345
X68.62Y-69.85
X69.425Y-46.565
X69.425Y-49.105
X69.425Y-61.805
X69.425Y-64.345
X69.89Y-40.64
X71.965Y-46.565
X71.965Y-49.105
X71.965Y-61.805
X71.965Y-64.345
X73.62Y-69.85
X74.505Y-46.565
X74.505Y-49.105
X74.505Y-61.805
X74.505Y-64.345
X74.89Y-40.64
X77.045Y-46.565
X77.045Y-49.105
X77.045Y-51.645
X77.045Y-54.185
X77.045Y-56.725
X77.045Y-59.265
X77.045Y-61.805
X77.045Y-64.345
X79.585Y-49.105
X79.585Y-51.645
X79.585Y-54.185
X79.585Y-56.725
X79.585Y-59.265
X79.585Y-61.805
X85.09Y-53.38
X85.09Y-58.38
X87.63Y-35.56
X87.63Y-43.18
X91.44Y-35.56
X91.44Y-43.18
X95.25Y-35.56
X95.25Y-43.18
T2
X53.721Y-30.44
X56.261Y-30.44
X58.801Y-30.44
X61.341Y-30.44
X62.865Y-78.7
X63.881Y-30.44
X65.405Y-78.7
X66.421Y-30.44
X67.945Y-78.7
X68.961Y-30.44
X70.485Y-78.7
X71.501Y-30.44
X73.025Y-78.7
X74.041Y-30.44
X75.565Y-78.7
X76.581Y-30.44
X78.105Y-78.7
X80.645Y-30.44
X80.645Y-78.7
X83.185Y-30.44
X85.725Y-30.44
X85.725Y-78.7
X88.265Y-30.44
X88.265Y-78.7
X90.805Y-30.44
X90.805Y-78.7
X93.345Y-30.44
X93.345Y-78.7
X95.885Y-30.44
X95.885Y-78.7
X98.425Y-30.44
X98.425Y-78.7
X98.552Y-50.76
X98.552Y-53.3
X98.552Y-55.84
X101.092Y-50.76
X101.092Y-53.3
X101.092Y-55.84
M30
