%TF.GenerationSoftware,KiCad,Pcbnew,10.0.3*%
%TF.CreationDate,2026-09-11T14:12:05+02:00*%
%TF.ProjectId,atf150X-programmer,61746631-3530-4582-9d70-726f6772616d,rev?*%
%TF.SameCoordinates,Original*%
%TF.FileFunction,Legend,Top*%
%TF.FilePolarity,Positive*%
%FSLAX46Y46*%
G04 Gerber Fmt 4.6, Leading zero omitted, Abs format (unit mm)*
G04 Created by KiCad (PCBNEW 10.0.3) date 2026-09-11 14:12:05*
%MOMM*%
%LPD*%
G01*
G04 APERTURE LIST*
%ADD10C,0.200000*%
%ADD11C,0.150000*%
%ADD12C,0.120000*%
G04 APERTURE END LIST*
D10*
X67727292Y-73162541D02*
X68441578Y-73162541D01*
X67584435Y-73591112D02*
X68084435Y-72091112D01*
X68084435Y-72091112D02*
X68584435Y-73591112D01*
X68870149Y-72091112D02*
X69727292Y-72091112D01*
X69298720Y-73591112D02*
X69298720Y-72091112D01*
X70727291Y-72805398D02*
X70227291Y-72805398D01*
X70227291Y-73591112D02*
X70227291Y-72091112D01*
X70227291Y-72091112D02*
X70941577Y-72091112D01*
X72298720Y-73591112D02*
X71441577Y-73591112D01*
X71870148Y-73591112D02*
X71870148Y-72091112D01*
X71870148Y-72091112D02*
X71727291Y-72305398D01*
X71727291Y-72305398D02*
X71584434Y-72448255D01*
X71584434Y-72448255D02*
X71441577Y-72519684D01*
X73655862Y-72091112D02*
X72941576Y-72091112D01*
X72941576Y-72091112D02*
X72870148Y-72805398D01*
X72870148Y-72805398D02*
X72941576Y-72733969D01*
X72941576Y-72733969D02*
X73084434Y-72662541D01*
X73084434Y-72662541D02*
X73441576Y-72662541D01*
X73441576Y-72662541D02*
X73584434Y-72733969D01*
X73584434Y-72733969D02*
X73655862Y-72805398D01*
X73655862Y-72805398D02*
X73727291Y-72948255D01*
X73727291Y-72948255D02*
X73727291Y-73305398D01*
X73727291Y-73305398D02*
X73655862Y-73448255D01*
X73655862Y-73448255D02*
X73584434Y-73519684D01*
X73584434Y-73519684D02*
X73441576Y-73591112D01*
X73441576Y-73591112D02*
X73084434Y-73591112D01*
X73084434Y-73591112D02*
X72941576Y-73519684D01*
X72941576Y-73519684D02*
X72870148Y-73448255D01*
X74655862Y-72091112D02*
X74798719Y-72091112D01*
X74798719Y-72091112D02*
X74941576Y-72162541D01*
X74941576Y-72162541D02*
X75013005Y-72233969D01*
X75013005Y-72233969D02*
X75084433Y-72376826D01*
X75084433Y-72376826D02*
X75155862Y-72662541D01*
X75155862Y-72662541D02*
X75155862Y-73019684D01*
X75155862Y-73019684D02*
X75084433Y-73305398D01*
X75084433Y-73305398D02*
X75013005Y-73448255D01*
X75013005Y-73448255D02*
X74941576Y-73519684D01*
X74941576Y-73519684D02*
X74798719Y-73591112D01*
X74798719Y-73591112D02*
X74655862Y-73591112D01*
X74655862Y-73591112D02*
X74513005Y-73519684D01*
X74513005Y-73519684D02*
X74441576Y-73448255D01*
X74441576Y-73448255D02*
X74370147Y-73305398D01*
X74370147Y-73305398D02*
X74298719Y-73019684D01*
X74298719Y-73019684D02*
X74298719Y-72662541D01*
X74298719Y-72662541D02*
X74370147Y-72376826D01*
X74370147Y-72376826D02*
X74441576Y-72233969D01*
X74441576Y-72233969D02*
X74513005Y-72162541D01*
X74513005Y-72162541D02*
X74655862Y-72091112D01*
X75655861Y-72091112D02*
X76655861Y-73591112D01*
X76655861Y-72091112D02*
X75655861Y-73591112D01*
X78370146Y-73591112D02*
X78370146Y-72091112D01*
X78370146Y-72091112D02*
X78941575Y-72091112D01*
X78941575Y-72091112D02*
X79084432Y-72162541D01*
X79084432Y-72162541D02*
X79155861Y-72233969D01*
X79155861Y-72233969D02*
X79227289Y-72376826D01*
X79227289Y-72376826D02*
X79227289Y-72591112D01*
X79227289Y-72591112D02*
X79155861Y-72733969D01*
X79155861Y-72733969D02*
X79084432Y-72805398D01*
X79084432Y-72805398D02*
X78941575Y-72876826D01*
X78941575Y-72876826D02*
X78370146Y-72876826D01*
X80727289Y-73591112D02*
X80227289Y-72876826D01*
X79870146Y-73591112D02*
X79870146Y-72091112D01*
X79870146Y-72091112D02*
X80441575Y-72091112D01*
X80441575Y-72091112D02*
X80584432Y-72162541D01*
X80584432Y-72162541D02*
X80655861Y-72233969D01*
X80655861Y-72233969D02*
X80727289Y-72376826D01*
X80727289Y-72376826D02*
X80727289Y-72591112D01*
X80727289Y-72591112D02*
X80655861Y-72733969D01*
X80655861Y-72733969D02*
X80584432Y-72805398D01*
X80584432Y-72805398D02*
X80441575Y-72876826D01*
X80441575Y-72876826D02*
X79870146Y-72876826D01*
X81655861Y-72091112D02*
X81941575Y-72091112D01*
X81941575Y-72091112D02*
X82084432Y-72162541D01*
X82084432Y-72162541D02*
X82227289Y-72305398D01*
X82227289Y-72305398D02*
X82298718Y-72591112D01*
X82298718Y-72591112D02*
X82298718Y-73091112D01*
X82298718Y-73091112D02*
X82227289Y-73376826D01*
X82227289Y-73376826D02*
X82084432Y-73519684D01*
X82084432Y-73519684D02*
X81941575Y-73591112D01*
X81941575Y-73591112D02*
X81655861Y-73591112D01*
X81655861Y-73591112D02*
X81513004Y-73519684D01*
X81513004Y-73519684D02*
X81370146Y-73376826D01*
X81370146Y-73376826D02*
X81298718Y-73091112D01*
X81298718Y-73091112D02*
X81298718Y-72591112D01*
X81298718Y-72591112D02*
X81370146Y-72305398D01*
X81370146Y-72305398D02*
X81513004Y-72162541D01*
X81513004Y-72162541D02*
X81655861Y-72091112D01*
X83727290Y-72162541D02*
X83584433Y-72091112D01*
X83584433Y-72091112D02*
X83370147Y-72091112D01*
X83370147Y-72091112D02*
X83155861Y-72162541D01*
X83155861Y-72162541D02*
X83013004Y-72305398D01*
X83013004Y-72305398D02*
X82941575Y-72448255D01*
X82941575Y-72448255D02*
X82870147Y-72733969D01*
X82870147Y-72733969D02*
X82870147Y-72948255D01*
X82870147Y-72948255D02*
X82941575Y-73233969D01*
X82941575Y-73233969D02*
X83013004Y-73376826D01*
X83013004Y-73376826D02*
X83155861Y-73519684D01*
X83155861Y-73519684D02*
X83370147Y-73591112D01*
X83370147Y-73591112D02*
X83513004Y-73591112D01*
X83513004Y-73591112D02*
X83727290Y-73519684D01*
X83727290Y-73519684D02*
X83798718Y-73448255D01*
X83798718Y-73448255D02*
X83798718Y-72948255D01*
X83798718Y-72948255D02*
X83513004Y-72948255D01*
X85298718Y-73591112D02*
X84798718Y-72876826D01*
X84441575Y-73591112D02*
X84441575Y-72091112D01*
X84441575Y-72091112D02*
X85013004Y-72091112D01*
X85013004Y-72091112D02*
X85155861Y-72162541D01*
X85155861Y-72162541D02*
X85227290Y-72233969D01*
X85227290Y-72233969D02*
X85298718Y-72376826D01*
X85298718Y-72376826D02*
X85298718Y-72591112D01*
X85298718Y-72591112D02*
X85227290Y-72733969D01*
X85227290Y-72733969D02*
X85155861Y-72805398D01*
X85155861Y-72805398D02*
X85013004Y-72876826D01*
X85013004Y-72876826D02*
X84441575Y-72876826D01*
X85870147Y-73162541D02*
X86584433Y-73162541D01*
X85727290Y-73591112D02*
X86227290Y-72091112D01*
X86227290Y-72091112D02*
X86727290Y-73591112D01*
X87227289Y-73591112D02*
X87227289Y-72091112D01*
X87227289Y-72091112D02*
X87727289Y-73162541D01*
X87727289Y-73162541D02*
X88227289Y-72091112D01*
X88227289Y-72091112D02*
X88227289Y-73591112D01*
X88941575Y-73591112D02*
X88941575Y-72091112D01*
X88941575Y-72091112D02*
X89441575Y-73162541D01*
X89441575Y-73162541D02*
X89941575Y-72091112D01*
X89941575Y-72091112D02*
X89941575Y-73591112D01*
X90655861Y-72805398D02*
X91155861Y-72805398D01*
X91370147Y-73591112D02*
X90655861Y-73591112D01*
X90655861Y-73591112D02*
X90655861Y-72091112D01*
X90655861Y-72091112D02*
X91370147Y-72091112D01*
X92870147Y-73591112D02*
X92370147Y-72876826D01*
X92013004Y-73591112D02*
X92013004Y-72091112D01*
X92013004Y-72091112D02*
X92584433Y-72091112D01*
X92584433Y-72091112D02*
X92727290Y-72162541D01*
X92727290Y-72162541D02*
X92798719Y-72233969D01*
X92798719Y-72233969D02*
X92870147Y-72376826D01*
X92870147Y-72376826D02*
X92870147Y-72591112D01*
X92870147Y-72591112D02*
X92798719Y-72733969D01*
X92798719Y-72733969D02*
X92727290Y-72805398D01*
X92727290Y-72805398D02*
X92584433Y-72876826D01*
X92584433Y-72876826D02*
X92013004Y-72876826D01*
X67727292Y-75577457D02*
X68441578Y-75577457D01*
X67584435Y-76006028D02*
X68084435Y-74506028D01*
X68084435Y-74506028D02*
X68584435Y-76006028D01*
X69941577Y-76006028D02*
X69441577Y-75291742D01*
X69084434Y-76006028D02*
X69084434Y-74506028D01*
X69084434Y-74506028D02*
X69655863Y-74506028D01*
X69655863Y-74506028D02*
X69798720Y-74577457D01*
X69798720Y-74577457D02*
X69870149Y-74648885D01*
X69870149Y-74648885D02*
X69941577Y-74791742D01*
X69941577Y-74791742D02*
X69941577Y-75006028D01*
X69941577Y-75006028D02*
X69870149Y-75148885D01*
X69870149Y-75148885D02*
X69798720Y-75220314D01*
X69798720Y-75220314D02*
X69655863Y-75291742D01*
X69655863Y-75291742D02*
X69084434Y-75291742D01*
X70584434Y-76006028D02*
X70584434Y-74506028D01*
X70584434Y-74506028D02*
X70941577Y-74506028D01*
X70941577Y-74506028D02*
X71155863Y-74577457D01*
X71155863Y-74577457D02*
X71298720Y-74720314D01*
X71298720Y-74720314D02*
X71370149Y-74863171D01*
X71370149Y-74863171D02*
X71441577Y-75148885D01*
X71441577Y-75148885D02*
X71441577Y-75363171D01*
X71441577Y-75363171D02*
X71370149Y-75648885D01*
X71370149Y-75648885D02*
X71298720Y-75791742D01*
X71298720Y-75791742D02*
X71155863Y-75934600D01*
X71155863Y-75934600D02*
X70941577Y-76006028D01*
X70941577Y-76006028D02*
X70584434Y-76006028D01*
X72084434Y-74506028D02*
X72084434Y-75720314D01*
X72084434Y-75720314D02*
X72155863Y-75863171D01*
X72155863Y-75863171D02*
X72227292Y-75934600D01*
X72227292Y-75934600D02*
X72370149Y-76006028D01*
X72370149Y-76006028D02*
X72655863Y-76006028D01*
X72655863Y-76006028D02*
X72798720Y-75934600D01*
X72798720Y-75934600D02*
X72870149Y-75863171D01*
X72870149Y-75863171D02*
X72941577Y-75720314D01*
X72941577Y-75720314D02*
X72941577Y-74506028D01*
X73655863Y-76006028D02*
X73655863Y-74506028D01*
X74370149Y-76006028D02*
X74370149Y-74506028D01*
X74370149Y-74506028D02*
X75227292Y-76006028D01*
X75227292Y-76006028D02*
X75227292Y-74506028D01*
X76227293Y-74506028D02*
X76513007Y-74506028D01*
X76513007Y-74506028D02*
X76655864Y-74577457D01*
X76655864Y-74577457D02*
X76798721Y-74720314D01*
X76798721Y-74720314D02*
X76870150Y-75006028D01*
X76870150Y-75006028D02*
X76870150Y-75506028D01*
X76870150Y-75506028D02*
X76798721Y-75791742D01*
X76798721Y-75791742D02*
X76655864Y-75934600D01*
X76655864Y-75934600D02*
X76513007Y-76006028D01*
X76513007Y-76006028D02*
X76227293Y-76006028D01*
X76227293Y-76006028D02*
X76084436Y-75934600D01*
X76084436Y-75934600D02*
X75941578Y-75791742D01*
X75941578Y-75791742D02*
X75870150Y-75506028D01*
X75870150Y-75506028D02*
X75870150Y-75006028D01*
X75870150Y-75006028D02*
X75941578Y-74720314D01*
X75941578Y-74720314D02*
X76084436Y-74577457D01*
X76084436Y-74577457D02*
X76227293Y-74506028D01*
X79370150Y-76006028D02*
X78655864Y-76006028D01*
X78655864Y-76006028D02*
X78655864Y-74506028D01*
X79870150Y-75220314D02*
X80370150Y-75220314D01*
X80584436Y-76006028D02*
X79870150Y-76006028D01*
X79870150Y-76006028D02*
X79870150Y-74506028D01*
X79870150Y-74506028D02*
X80584436Y-74506028D01*
X81513008Y-74506028D02*
X81798722Y-74506028D01*
X81798722Y-74506028D02*
X81941579Y-74577457D01*
X81941579Y-74577457D02*
X82084436Y-74720314D01*
X82084436Y-74720314D02*
X82155865Y-75006028D01*
X82155865Y-75006028D02*
X82155865Y-75506028D01*
X82155865Y-75506028D02*
X82084436Y-75791742D01*
X82084436Y-75791742D02*
X81941579Y-75934600D01*
X81941579Y-75934600D02*
X81798722Y-76006028D01*
X81798722Y-76006028D02*
X81513008Y-76006028D01*
X81513008Y-76006028D02*
X81370151Y-75934600D01*
X81370151Y-75934600D02*
X81227293Y-75791742D01*
X81227293Y-75791742D02*
X81155865Y-75506028D01*
X81155865Y-75506028D02*
X81155865Y-75006028D01*
X81155865Y-75006028D02*
X81227293Y-74720314D01*
X81227293Y-74720314D02*
X81370151Y-74577457D01*
X81370151Y-74577457D02*
X81513008Y-74506028D01*
X82798722Y-76006028D02*
X82798722Y-74506028D01*
X82798722Y-74506028D02*
X83655865Y-76006028D01*
X83655865Y-76006028D02*
X83655865Y-74506028D01*
X84298723Y-75577457D02*
X85013009Y-75577457D01*
X84155866Y-76006028D02*
X84655866Y-74506028D01*
X84655866Y-74506028D02*
X85155866Y-76006028D01*
X86513008Y-76006028D02*
X86013008Y-75291742D01*
X85655865Y-76006028D02*
X85655865Y-74506028D01*
X85655865Y-74506028D02*
X86227294Y-74506028D01*
X86227294Y-74506028D02*
X86370151Y-74577457D01*
X86370151Y-74577457D02*
X86441580Y-74648885D01*
X86441580Y-74648885D02*
X86513008Y-74791742D01*
X86513008Y-74791742D02*
X86513008Y-75006028D01*
X86513008Y-75006028D02*
X86441580Y-75148885D01*
X86441580Y-75148885D02*
X86370151Y-75220314D01*
X86370151Y-75220314D02*
X86227294Y-75291742D01*
X86227294Y-75291742D02*
X85655865Y-75291742D01*
X87155865Y-76006028D02*
X87155865Y-74506028D01*
X87155865Y-74506028D02*
X87513008Y-74506028D01*
X87513008Y-74506028D02*
X87727294Y-74577457D01*
X87727294Y-74577457D02*
X87870151Y-74720314D01*
X87870151Y-74720314D02*
X87941580Y-74863171D01*
X87941580Y-74863171D02*
X88013008Y-75148885D01*
X88013008Y-75148885D02*
X88013008Y-75363171D01*
X88013008Y-75363171D02*
X87941580Y-75648885D01*
X87941580Y-75648885D02*
X87870151Y-75791742D01*
X87870151Y-75791742D02*
X87727294Y-75934600D01*
X87727294Y-75934600D02*
X87513008Y-76006028D01*
X87513008Y-76006028D02*
X87155865Y-76006028D01*
X88941580Y-74506028D02*
X89227294Y-74506028D01*
X89227294Y-74506028D02*
X89370151Y-74577457D01*
X89370151Y-74577457D02*
X89513008Y-74720314D01*
X89513008Y-74720314D02*
X89584437Y-75006028D01*
X89584437Y-75006028D02*
X89584437Y-75506028D01*
X89584437Y-75506028D02*
X89513008Y-75791742D01*
X89513008Y-75791742D02*
X89370151Y-75934600D01*
X89370151Y-75934600D02*
X89227294Y-76006028D01*
X89227294Y-76006028D02*
X88941580Y-76006028D01*
X88941580Y-76006028D02*
X88798723Y-75934600D01*
X88798723Y-75934600D02*
X88655865Y-75791742D01*
X88655865Y-75791742D02*
X88584437Y-75506028D01*
X88584437Y-75506028D02*
X88584437Y-75006028D01*
X88584437Y-75006028D02*
X88655865Y-74720314D01*
X88655865Y-74720314D02*
X88798723Y-74577457D01*
X88798723Y-74577457D02*
X88941580Y-74506028D01*
X91298723Y-75934600D02*
X91513009Y-76006028D01*
X91513009Y-76006028D02*
X91870151Y-76006028D01*
X91870151Y-76006028D02*
X92013009Y-75934600D01*
X92013009Y-75934600D02*
X92084437Y-75863171D01*
X92084437Y-75863171D02*
X92155866Y-75720314D01*
X92155866Y-75720314D02*
X92155866Y-75577457D01*
X92155866Y-75577457D02*
X92084437Y-75434600D01*
X92084437Y-75434600D02*
X92013009Y-75363171D01*
X92013009Y-75363171D02*
X91870151Y-75291742D01*
X91870151Y-75291742D02*
X91584437Y-75220314D01*
X91584437Y-75220314D02*
X91441580Y-75148885D01*
X91441580Y-75148885D02*
X91370151Y-75077457D01*
X91370151Y-75077457D02*
X91298723Y-74934600D01*
X91298723Y-74934600D02*
X91298723Y-74791742D01*
X91298723Y-74791742D02*
X91370151Y-74648885D01*
X91370151Y-74648885D02*
X91441580Y-74577457D01*
X91441580Y-74577457D02*
X91584437Y-74506028D01*
X91584437Y-74506028D02*
X91941580Y-74506028D01*
X91941580Y-74506028D02*
X92155866Y-74577457D01*
X92798722Y-76006028D02*
X92798722Y-74506028D01*
X92798722Y-75220314D02*
X93655865Y-75220314D01*
X93655865Y-76006028D02*
X93655865Y-74506028D01*
X94370151Y-76006028D02*
X94370151Y-74506028D01*
X95084437Y-75220314D02*
X95584437Y-75220314D01*
X95798723Y-76006028D02*
X95084437Y-76006028D01*
X95084437Y-76006028D02*
X95084437Y-74506028D01*
X95084437Y-74506028D02*
X95798723Y-74506028D01*
X97155866Y-76006028D02*
X96441580Y-76006028D01*
X96441580Y-76006028D02*
X96441580Y-74506028D01*
X97655866Y-76006028D02*
X97655866Y-74506028D01*
X97655866Y-74506028D02*
X98013009Y-74506028D01*
X98013009Y-74506028D02*
X98227295Y-74577457D01*
X98227295Y-74577457D02*
X98370152Y-74720314D01*
X98370152Y-74720314D02*
X98441581Y-74863171D01*
X98441581Y-74863171D02*
X98513009Y-75148885D01*
X98513009Y-75148885D02*
X98513009Y-75363171D01*
X98513009Y-75363171D02*
X98441581Y-75648885D01*
X98441581Y-75648885D02*
X98370152Y-75791742D01*
X98370152Y-75791742D02*
X98227295Y-75934600D01*
X98227295Y-75934600D02*
X98013009Y-76006028D01*
X98013009Y-76006028D02*
X97655866Y-76006028D01*
D11*
X97409000Y-49595580D02*
X97456619Y-49643200D01*
X97456619Y-49643200D02*
X97409000Y-49690819D01*
X97409000Y-49690819D02*
X97361381Y-49643200D01*
X97361381Y-49643200D02*
X97409000Y-49595580D01*
X97409000Y-49595580D02*
X97409000Y-49690819D01*
X68304580Y-40806666D02*
X68352200Y-40854285D01*
X68352200Y-40854285D02*
X68399819Y-40997142D01*
X68399819Y-40997142D02*
X68399819Y-41092380D01*
X68399819Y-41092380D02*
X68352200Y-41235237D01*
X68352200Y-41235237D02*
X68256961Y-41330475D01*
X68256961Y-41330475D02*
X68161723Y-41378094D01*
X68161723Y-41378094D02*
X67971247Y-41425713D01*
X67971247Y-41425713D02*
X67828390Y-41425713D01*
X67828390Y-41425713D02*
X67637914Y-41378094D01*
X67637914Y-41378094D02*
X67542676Y-41330475D01*
X67542676Y-41330475D02*
X67447438Y-41235237D01*
X67447438Y-41235237D02*
X67399819Y-41092380D01*
X67399819Y-41092380D02*
X67399819Y-40997142D01*
X67399819Y-40997142D02*
X67447438Y-40854285D01*
X67447438Y-40854285D02*
X67495057Y-40806666D01*
X67733152Y-39949523D02*
X68399819Y-39949523D01*
X67352200Y-40187618D02*
X68066485Y-40425713D01*
X68066485Y-40425713D02*
X68066485Y-39806666D01*
X49363333Y-40459819D02*
X49030000Y-39983628D01*
X48791905Y-40459819D02*
X48791905Y-39459819D01*
X48791905Y-39459819D02*
X49172857Y-39459819D01*
X49172857Y-39459819D02*
X49268095Y-39507438D01*
X49268095Y-39507438D02*
X49315714Y-39555057D01*
X49315714Y-39555057D02*
X49363333Y-39650295D01*
X49363333Y-39650295D02*
X49363333Y-39793152D01*
X49363333Y-39793152D02*
X49315714Y-39888390D01*
X49315714Y-39888390D02*
X49268095Y-39936009D01*
X49268095Y-39936009D02*
X49172857Y-39983628D01*
X49172857Y-39983628D02*
X48791905Y-39983628D01*
X49744286Y-39555057D02*
X49791905Y-39507438D01*
X49791905Y-39507438D02*
X49887143Y-39459819D01*
X49887143Y-39459819D02*
X50125238Y-39459819D01*
X50125238Y-39459819D02*
X50220476Y-39507438D01*
X50220476Y-39507438D02*
X50268095Y-39555057D01*
X50268095Y-39555057D02*
X50315714Y-39650295D01*
X50315714Y-39650295D02*
X50315714Y-39745533D01*
X50315714Y-39745533D02*
X50268095Y-39888390D01*
X50268095Y-39888390D02*
X49696667Y-40459819D01*
X49696667Y-40459819D02*
X50315714Y-40459819D01*
X49984819Y-46315238D02*
X49984819Y-46886666D01*
X49984819Y-46600952D02*
X48984819Y-46600952D01*
X48984819Y-46600952D02*
X49127676Y-46696190D01*
X49127676Y-46696190D02*
X49222914Y-46791428D01*
X49222914Y-46791428D02*
X49270533Y-46886666D01*
X48984819Y-45696190D02*
X48984819Y-45600952D01*
X48984819Y-45600952D02*
X49032438Y-45505714D01*
X49032438Y-45505714D02*
X49080057Y-45458095D01*
X49080057Y-45458095D02*
X49175295Y-45410476D01*
X49175295Y-45410476D02*
X49365771Y-45362857D01*
X49365771Y-45362857D02*
X49603866Y-45362857D01*
X49603866Y-45362857D02*
X49794342Y-45410476D01*
X49794342Y-45410476D02*
X49889580Y-45458095D01*
X49889580Y-45458095D02*
X49937200Y-45505714D01*
X49937200Y-45505714D02*
X49984819Y-45600952D01*
X49984819Y-45600952D02*
X49984819Y-45696190D01*
X49984819Y-45696190D02*
X49937200Y-45791428D01*
X49937200Y-45791428D02*
X49889580Y-45839047D01*
X49889580Y-45839047D02*
X49794342Y-45886666D01*
X49794342Y-45886666D02*
X49603866Y-45934285D01*
X49603866Y-45934285D02*
X49365771Y-45934285D01*
X49365771Y-45934285D02*
X49175295Y-45886666D01*
X49175295Y-45886666D02*
X49080057Y-45839047D01*
X49080057Y-45839047D02*
X49032438Y-45791428D01*
X49032438Y-45791428D02*
X48984819Y-45696190D01*
X49984819Y-44934285D02*
X48984819Y-44934285D01*
X49603866Y-44839047D02*
X49984819Y-44553333D01*
X49318152Y-44553333D02*
X49699104Y-44934285D01*
X67034580Y-70016666D02*
X67082200Y-70064285D01*
X67082200Y-70064285D02*
X67129819Y-70207142D01*
X67129819Y-70207142D02*
X67129819Y-70302380D01*
X67129819Y-70302380D02*
X67082200Y-70445237D01*
X67082200Y-70445237D02*
X66986961Y-70540475D01*
X66986961Y-70540475D02*
X66891723Y-70588094D01*
X66891723Y-70588094D02*
X66701247Y-70635713D01*
X66701247Y-70635713D02*
X66558390Y-70635713D01*
X66558390Y-70635713D02*
X66367914Y-70588094D01*
X66367914Y-70588094D02*
X66272676Y-70540475D01*
X66272676Y-70540475D02*
X66177438Y-70445237D01*
X66177438Y-70445237D02*
X66129819Y-70302380D01*
X66129819Y-70302380D02*
X66129819Y-70207142D01*
X66129819Y-70207142D02*
X66177438Y-70064285D01*
X66177438Y-70064285D02*
X66225057Y-70016666D01*
X66129819Y-69111904D02*
X66129819Y-69588094D01*
X66129819Y-69588094D02*
X66606009Y-69635713D01*
X66606009Y-69635713D02*
X66558390Y-69588094D01*
X66558390Y-69588094D02*
X66510771Y-69492856D01*
X66510771Y-69492856D02*
X66510771Y-69254761D01*
X66510771Y-69254761D02*
X66558390Y-69159523D01*
X66558390Y-69159523D02*
X66606009Y-69111904D01*
X66606009Y-69111904D02*
X66701247Y-69064285D01*
X66701247Y-69064285D02*
X66939342Y-69064285D01*
X66939342Y-69064285D02*
X67034580Y-69111904D01*
X67034580Y-69111904D02*
X67082200Y-69159523D01*
X67082200Y-69159523D02*
X67129819Y-69254761D01*
X67129819Y-69254761D02*
X67129819Y-69492856D01*
X67129819Y-69492856D02*
X67082200Y-69588094D01*
X67082200Y-69588094D02*
X67034580Y-69635713D01*
X95704819Y-45886666D02*
X95228628Y-46219999D01*
X95704819Y-46458094D02*
X94704819Y-46458094D01*
X94704819Y-46458094D02*
X94704819Y-46077142D01*
X94704819Y-46077142D02*
X94752438Y-45981904D01*
X94752438Y-45981904D02*
X94800057Y-45934285D01*
X94800057Y-45934285D02*
X94895295Y-45886666D01*
X94895295Y-45886666D02*
X95038152Y-45886666D01*
X95038152Y-45886666D02*
X95133390Y-45934285D01*
X95133390Y-45934285D02*
X95181009Y-45981904D01*
X95181009Y-45981904D02*
X95228628Y-46077142D01*
X95228628Y-46077142D02*
X95228628Y-46458094D01*
X94704819Y-45553332D02*
X94704819Y-44934285D01*
X94704819Y-44934285D02*
X95085771Y-45267618D01*
X95085771Y-45267618D02*
X95085771Y-45124761D01*
X95085771Y-45124761D02*
X95133390Y-45029523D01*
X95133390Y-45029523D02*
X95181009Y-44981904D01*
X95181009Y-44981904D02*
X95276247Y-44934285D01*
X95276247Y-44934285D02*
X95514342Y-44934285D01*
X95514342Y-44934285D02*
X95609580Y-44981904D01*
X95609580Y-44981904D02*
X95657200Y-45029523D01*
X95657200Y-45029523D02*
X95704819Y-45124761D01*
X95704819Y-45124761D02*
X95704819Y-45410475D01*
X95704819Y-45410475D02*
X95657200Y-45505713D01*
X95657200Y-45505713D02*
X95609580Y-45553332D01*
X95704819Y-40036666D02*
X95704819Y-40608094D01*
X95704819Y-40322380D02*
X94704819Y-40322380D01*
X94704819Y-40322380D02*
X94847676Y-40417618D01*
X94847676Y-40417618D02*
X94942914Y-40512856D01*
X94942914Y-40512856D02*
X94990533Y-40608094D01*
X94704819Y-39417618D02*
X94704819Y-39322380D01*
X94704819Y-39322380D02*
X94752438Y-39227142D01*
X94752438Y-39227142D02*
X94800057Y-39179523D01*
X94800057Y-39179523D02*
X94895295Y-39131904D01*
X94895295Y-39131904D02*
X95085771Y-39084285D01*
X95085771Y-39084285D02*
X95323866Y-39084285D01*
X95323866Y-39084285D02*
X95514342Y-39131904D01*
X95514342Y-39131904D02*
X95609580Y-39179523D01*
X95609580Y-39179523D02*
X95657200Y-39227142D01*
X95657200Y-39227142D02*
X95704819Y-39322380D01*
X95704819Y-39322380D02*
X95704819Y-39417618D01*
X95704819Y-39417618D02*
X95657200Y-39512856D01*
X95657200Y-39512856D02*
X95609580Y-39560475D01*
X95609580Y-39560475D02*
X95514342Y-39608094D01*
X95514342Y-39608094D02*
X95323866Y-39655713D01*
X95323866Y-39655713D02*
X95085771Y-39655713D01*
X95085771Y-39655713D02*
X94895295Y-39608094D01*
X94895295Y-39608094D02*
X94800057Y-39560475D01*
X94800057Y-39560475D02*
X94752438Y-39512856D01*
X94752438Y-39512856D02*
X94704819Y-39417618D01*
X94704819Y-38465237D02*
X94704819Y-38369999D01*
X94704819Y-38369999D02*
X94752438Y-38274761D01*
X94752438Y-38274761D02*
X94800057Y-38227142D01*
X94800057Y-38227142D02*
X94895295Y-38179523D01*
X94895295Y-38179523D02*
X95085771Y-38131904D01*
X95085771Y-38131904D02*
X95323866Y-38131904D01*
X95323866Y-38131904D02*
X95514342Y-38179523D01*
X95514342Y-38179523D02*
X95609580Y-38227142D01*
X95609580Y-38227142D02*
X95657200Y-38274761D01*
X95657200Y-38274761D02*
X95704819Y-38369999D01*
X95704819Y-38369999D02*
X95704819Y-38465237D01*
X95704819Y-38465237D02*
X95657200Y-38560475D01*
X95657200Y-38560475D02*
X95609580Y-38608094D01*
X95609580Y-38608094D02*
X95514342Y-38655713D01*
X95514342Y-38655713D02*
X95323866Y-38703332D01*
X95323866Y-38703332D02*
X95085771Y-38703332D01*
X95085771Y-38703332D02*
X94895295Y-38655713D01*
X94895295Y-38655713D02*
X94800057Y-38608094D01*
X94800057Y-38608094D02*
X94752438Y-38560475D01*
X94752438Y-38560475D02*
X94704819Y-38465237D01*
X49363333Y-54429819D02*
X49030000Y-53953628D01*
X48791905Y-54429819D02*
X48791905Y-53429819D01*
X48791905Y-53429819D02*
X49172857Y-53429819D01*
X49172857Y-53429819D02*
X49268095Y-53477438D01*
X49268095Y-53477438D02*
X49315714Y-53525057D01*
X49315714Y-53525057D02*
X49363333Y-53620295D01*
X49363333Y-53620295D02*
X49363333Y-53763152D01*
X49363333Y-53763152D02*
X49315714Y-53858390D01*
X49315714Y-53858390D02*
X49268095Y-53906009D01*
X49268095Y-53906009D02*
X49172857Y-53953628D01*
X49172857Y-53953628D02*
X48791905Y-53953628D01*
X50315714Y-54429819D02*
X49744286Y-54429819D01*
X50030000Y-54429819D02*
X50030000Y-53429819D01*
X50030000Y-53429819D02*
X49934762Y-53572676D01*
X49934762Y-53572676D02*
X49839524Y-53667914D01*
X49839524Y-53667914D02*
X49744286Y-53715533D01*
X49984819Y-60285238D02*
X49984819Y-60856666D01*
X49984819Y-60570952D02*
X48984819Y-60570952D01*
X48984819Y-60570952D02*
X49127676Y-60666190D01*
X49127676Y-60666190D02*
X49222914Y-60761428D01*
X49222914Y-60761428D02*
X49270533Y-60856666D01*
X48984819Y-59666190D02*
X48984819Y-59570952D01*
X48984819Y-59570952D02*
X49032438Y-59475714D01*
X49032438Y-59475714D02*
X49080057Y-59428095D01*
X49080057Y-59428095D02*
X49175295Y-59380476D01*
X49175295Y-59380476D02*
X49365771Y-59332857D01*
X49365771Y-59332857D02*
X49603866Y-59332857D01*
X49603866Y-59332857D02*
X49794342Y-59380476D01*
X49794342Y-59380476D02*
X49889580Y-59428095D01*
X49889580Y-59428095D02*
X49937200Y-59475714D01*
X49937200Y-59475714D02*
X49984819Y-59570952D01*
X49984819Y-59570952D02*
X49984819Y-59666190D01*
X49984819Y-59666190D02*
X49937200Y-59761428D01*
X49937200Y-59761428D02*
X49889580Y-59809047D01*
X49889580Y-59809047D02*
X49794342Y-59856666D01*
X49794342Y-59856666D02*
X49603866Y-59904285D01*
X49603866Y-59904285D02*
X49365771Y-59904285D01*
X49365771Y-59904285D02*
X49175295Y-59856666D01*
X49175295Y-59856666D02*
X49080057Y-59809047D01*
X49080057Y-59809047D02*
X49032438Y-59761428D01*
X49032438Y-59761428D02*
X48984819Y-59666190D01*
X49984819Y-58904285D02*
X48984819Y-58904285D01*
X49603866Y-58809047D02*
X49984819Y-58523333D01*
X49318152Y-58523333D02*
X49699104Y-58904285D01*
X88084819Y-45886666D02*
X87608628Y-46219999D01*
X88084819Y-46458094D02*
X87084819Y-46458094D01*
X87084819Y-46458094D02*
X87084819Y-46077142D01*
X87084819Y-46077142D02*
X87132438Y-45981904D01*
X87132438Y-45981904D02*
X87180057Y-45934285D01*
X87180057Y-45934285D02*
X87275295Y-45886666D01*
X87275295Y-45886666D02*
X87418152Y-45886666D01*
X87418152Y-45886666D02*
X87513390Y-45934285D01*
X87513390Y-45934285D02*
X87561009Y-45981904D01*
X87561009Y-45981904D02*
X87608628Y-46077142D01*
X87608628Y-46077142D02*
X87608628Y-46458094D01*
X87084819Y-44981904D02*
X87084819Y-45458094D01*
X87084819Y-45458094D02*
X87561009Y-45505713D01*
X87561009Y-45505713D02*
X87513390Y-45458094D01*
X87513390Y-45458094D02*
X87465771Y-45362856D01*
X87465771Y-45362856D02*
X87465771Y-45124761D01*
X87465771Y-45124761D02*
X87513390Y-45029523D01*
X87513390Y-45029523D02*
X87561009Y-44981904D01*
X87561009Y-44981904D02*
X87656247Y-44934285D01*
X87656247Y-44934285D02*
X87894342Y-44934285D01*
X87894342Y-44934285D02*
X87989580Y-44981904D01*
X87989580Y-44981904D02*
X88037200Y-45029523D01*
X88037200Y-45029523D02*
X88084819Y-45124761D01*
X88084819Y-45124761D02*
X88084819Y-45362856D01*
X88084819Y-45362856D02*
X88037200Y-45458094D01*
X88037200Y-45458094D02*
X87989580Y-45505713D01*
X88084819Y-40036666D02*
X88084819Y-40608094D01*
X88084819Y-40322380D02*
X87084819Y-40322380D01*
X87084819Y-40322380D02*
X87227676Y-40417618D01*
X87227676Y-40417618D02*
X87322914Y-40512856D01*
X87322914Y-40512856D02*
X87370533Y-40608094D01*
X87084819Y-39417618D02*
X87084819Y-39322380D01*
X87084819Y-39322380D02*
X87132438Y-39227142D01*
X87132438Y-39227142D02*
X87180057Y-39179523D01*
X87180057Y-39179523D02*
X87275295Y-39131904D01*
X87275295Y-39131904D02*
X87465771Y-39084285D01*
X87465771Y-39084285D02*
X87703866Y-39084285D01*
X87703866Y-39084285D02*
X87894342Y-39131904D01*
X87894342Y-39131904D02*
X87989580Y-39179523D01*
X87989580Y-39179523D02*
X88037200Y-39227142D01*
X88037200Y-39227142D02*
X88084819Y-39322380D01*
X88084819Y-39322380D02*
X88084819Y-39417618D01*
X88084819Y-39417618D02*
X88037200Y-39512856D01*
X88037200Y-39512856D02*
X87989580Y-39560475D01*
X87989580Y-39560475D02*
X87894342Y-39608094D01*
X87894342Y-39608094D02*
X87703866Y-39655713D01*
X87703866Y-39655713D02*
X87465771Y-39655713D01*
X87465771Y-39655713D02*
X87275295Y-39608094D01*
X87275295Y-39608094D02*
X87180057Y-39560475D01*
X87180057Y-39560475D02*
X87132438Y-39512856D01*
X87132438Y-39512856D02*
X87084819Y-39417618D01*
X87084819Y-38465237D02*
X87084819Y-38369999D01*
X87084819Y-38369999D02*
X87132438Y-38274761D01*
X87132438Y-38274761D02*
X87180057Y-38227142D01*
X87180057Y-38227142D02*
X87275295Y-38179523D01*
X87275295Y-38179523D02*
X87465771Y-38131904D01*
X87465771Y-38131904D02*
X87703866Y-38131904D01*
X87703866Y-38131904D02*
X87894342Y-38179523D01*
X87894342Y-38179523D02*
X87989580Y-38227142D01*
X87989580Y-38227142D02*
X88037200Y-38274761D01*
X88037200Y-38274761D02*
X88084819Y-38369999D01*
X88084819Y-38369999D02*
X88084819Y-38465237D01*
X88084819Y-38465237D02*
X88037200Y-38560475D01*
X88037200Y-38560475D02*
X87989580Y-38608094D01*
X87989580Y-38608094D02*
X87894342Y-38655713D01*
X87894342Y-38655713D02*
X87703866Y-38703332D01*
X87703866Y-38703332D02*
X87465771Y-38703332D01*
X87465771Y-38703332D02*
X87275295Y-38655713D01*
X87275295Y-38655713D02*
X87180057Y-38608094D01*
X87180057Y-38608094D02*
X87132438Y-38560475D01*
X87132438Y-38560475D02*
X87084819Y-38465237D01*
X91894819Y-45886666D02*
X91418628Y-46219999D01*
X91894819Y-46458094D02*
X90894819Y-46458094D01*
X90894819Y-46458094D02*
X90894819Y-46077142D01*
X90894819Y-46077142D02*
X90942438Y-45981904D01*
X90942438Y-45981904D02*
X90990057Y-45934285D01*
X90990057Y-45934285D02*
X91085295Y-45886666D01*
X91085295Y-45886666D02*
X91228152Y-45886666D01*
X91228152Y-45886666D02*
X91323390Y-45934285D01*
X91323390Y-45934285D02*
X91371009Y-45981904D01*
X91371009Y-45981904D02*
X91418628Y-46077142D01*
X91418628Y-46077142D02*
X91418628Y-46458094D01*
X91228152Y-45029523D02*
X91894819Y-45029523D01*
X90847200Y-45267618D02*
X91561485Y-45505713D01*
X91561485Y-45505713D02*
X91561485Y-44886666D01*
X91894819Y-40036666D02*
X91894819Y-40608094D01*
X91894819Y-40322380D02*
X90894819Y-40322380D01*
X90894819Y-40322380D02*
X91037676Y-40417618D01*
X91037676Y-40417618D02*
X91132914Y-40512856D01*
X91132914Y-40512856D02*
X91180533Y-40608094D01*
X90894819Y-39417618D02*
X90894819Y-39322380D01*
X90894819Y-39322380D02*
X90942438Y-39227142D01*
X90942438Y-39227142D02*
X90990057Y-39179523D01*
X90990057Y-39179523D02*
X91085295Y-39131904D01*
X91085295Y-39131904D02*
X91275771Y-39084285D01*
X91275771Y-39084285D02*
X91513866Y-39084285D01*
X91513866Y-39084285D02*
X91704342Y-39131904D01*
X91704342Y-39131904D02*
X91799580Y-39179523D01*
X91799580Y-39179523D02*
X91847200Y-39227142D01*
X91847200Y-39227142D02*
X91894819Y-39322380D01*
X91894819Y-39322380D02*
X91894819Y-39417618D01*
X91894819Y-39417618D02*
X91847200Y-39512856D01*
X91847200Y-39512856D02*
X91799580Y-39560475D01*
X91799580Y-39560475D02*
X91704342Y-39608094D01*
X91704342Y-39608094D02*
X91513866Y-39655713D01*
X91513866Y-39655713D02*
X91275771Y-39655713D01*
X91275771Y-39655713D02*
X91085295Y-39608094D01*
X91085295Y-39608094D02*
X90990057Y-39560475D01*
X90990057Y-39560475D02*
X90942438Y-39512856D01*
X90942438Y-39512856D02*
X90894819Y-39417618D01*
X90894819Y-38465237D02*
X90894819Y-38369999D01*
X90894819Y-38369999D02*
X90942438Y-38274761D01*
X90942438Y-38274761D02*
X90990057Y-38227142D01*
X90990057Y-38227142D02*
X91085295Y-38179523D01*
X91085295Y-38179523D02*
X91275771Y-38131904D01*
X91275771Y-38131904D02*
X91513866Y-38131904D01*
X91513866Y-38131904D02*
X91704342Y-38179523D01*
X91704342Y-38179523D02*
X91799580Y-38227142D01*
X91799580Y-38227142D02*
X91847200Y-38274761D01*
X91847200Y-38274761D02*
X91894819Y-38369999D01*
X91894819Y-38369999D02*
X91894819Y-38465237D01*
X91894819Y-38465237D02*
X91847200Y-38560475D01*
X91847200Y-38560475D02*
X91799580Y-38608094D01*
X91799580Y-38608094D02*
X91704342Y-38655713D01*
X91704342Y-38655713D02*
X91513866Y-38703332D01*
X91513866Y-38703332D02*
X91275771Y-38703332D01*
X91275771Y-38703332D02*
X91085295Y-38655713D01*
X91085295Y-38655713D02*
X90990057Y-38608094D01*
X90990057Y-38608094D02*
X90942438Y-38560475D01*
X90942438Y-38560475D02*
X90894819Y-38465237D01*
X84923333Y-51794580D02*
X84875714Y-51842200D01*
X84875714Y-51842200D02*
X84732857Y-51889819D01*
X84732857Y-51889819D02*
X84637619Y-51889819D01*
X84637619Y-51889819D02*
X84494762Y-51842200D01*
X84494762Y-51842200D02*
X84399524Y-51746961D01*
X84399524Y-51746961D02*
X84351905Y-51651723D01*
X84351905Y-51651723D02*
X84304286Y-51461247D01*
X84304286Y-51461247D02*
X84304286Y-51318390D01*
X84304286Y-51318390D02*
X84351905Y-51127914D01*
X84351905Y-51127914D02*
X84399524Y-51032676D01*
X84399524Y-51032676D02*
X84494762Y-50937438D01*
X84494762Y-50937438D02*
X84637619Y-50889819D01*
X84637619Y-50889819D02*
X84732857Y-50889819D01*
X84732857Y-50889819D02*
X84875714Y-50937438D01*
X84875714Y-50937438D02*
X84923333Y-50985057D01*
X85304286Y-50985057D02*
X85351905Y-50937438D01*
X85351905Y-50937438D02*
X85447143Y-50889819D01*
X85447143Y-50889819D02*
X85685238Y-50889819D01*
X85685238Y-50889819D02*
X85780476Y-50937438D01*
X85780476Y-50937438D02*
X85828095Y-50985057D01*
X85828095Y-50985057D02*
X85875714Y-51080295D01*
X85875714Y-51080295D02*
X85875714Y-51175533D01*
X85875714Y-51175533D02*
X85828095Y-51318390D01*
X85828095Y-51318390D02*
X85256667Y-51889819D01*
X85256667Y-51889819D02*
X85875714Y-51889819D01*
X55713333Y-60684580D02*
X55665714Y-60732200D01*
X55665714Y-60732200D02*
X55522857Y-60779819D01*
X55522857Y-60779819D02*
X55427619Y-60779819D01*
X55427619Y-60779819D02*
X55284762Y-60732200D01*
X55284762Y-60732200D02*
X55189524Y-60636961D01*
X55189524Y-60636961D02*
X55141905Y-60541723D01*
X55141905Y-60541723D02*
X55094286Y-60351247D01*
X55094286Y-60351247D02*
X55094286Y-60208390D01*
X55094286Y-60208390D02*
X55141905Y-60017914D01*
X55141905Y-60017914D02*
X55189524Y-59922676D01*
X55189524Y-59922676D02*
X55284762Y-59827438D01*
X55284762Y-59827438D02*
X55427619Y-59779819D01*
X55427619Y-59779819D02*
X55522857Y-59779819D01*
X55522857Y-59779819D02*
X55665714Y-59827438D01*
X55665714Y-59827438D02*
X55713333Y-59875057D01*
X56046667Y-59779819D02*
X56665714Y-59779819D01*
X56665714Y-59779819D02*
X56332381Y-60160771D01*
X56332381Y-60160771D02*
X56475238Y-60160771D01*
X56475238Y-60160771D02*
X56570476Y-60208390D01*
X56570476Y-60208390D02*
X56618095Y-60256009D01*
X56618095Y-60256009D02*
X56665714Y-60351247D01*
X56665714Y-60351247D02*
X56665714Y-60589342D01*
X56665714Y-60589342D02*
X56618095Y-60684580D01*
X56618095Y-60684580D02*
X56570476Y-60732200D01*
X56570476Y-60732200D02*
X56475238Y-60779819D01*
X56475238Y-60779819D02*
X56189524Y-60779819D01*
X56189524Y-60779819D02*
X56094286Y-60732200D01*
X56094286Y-60732200D02*
X56046667Y-60684580D01*
X54443333Y-40459819D02*
X54110000Y-39983628D01*
X53871905Y-40459819D02*
X53871905Y-39459819D01*
X53871905Y-39459819D02*
X54252857Y-39459819D01*
X54252857Y-39459819D02*
X54348095Y-39507438D01*
X54348095Y-39507438D02*
X54395714Y-39555057D01*
X54395714Y-39555057D02*
X54443333Y-39650295D01*
X54443333Y-39650295D02*
X54443333Y-39793152D01*
X54443333Y-39793152D02*
X54395714Y-39888390D01*
X54395714Y-39888390D02*
X54348095Y-39936009D01*
X54348095Y-39936009D02*
X54252857Y-39983628D01*
X54252857Y-39983628D02*
X53871905Y-39983628D01*
X55300476Y-39459819D02*
X55110000Y-39459819D01*
X55110000Y-39459819D02*
X55014762Y-39507438D01*
X55014762Y-39507438D02*
X54967143Y-39555057D01*
X54967143Y-39555057D02*
X54871905Y-39697914D01*
X54871905Y-39697914D02*
X54824286Y-39888390D01*
X54824286Y-39888390D02*
X54824286Y-40269342D01*
X54824286Y-40269342D02*
X54871905Y-40364580D01*
X54871905Y-40364580D02*
X54919524Y-40412200D01*
X54919524Y-40412200D02*
X55014762Y-40459819D01*
X55014762Y-40459819D02*
X55205238Y-40459819D01*
X55205238Y-40459819D02*
X55300476Y-40412200D01*
X55300476Y-40412200D02*
X55348095Y-40364580D01*
X55348095Y-40364580D02*
X55395714Y-40269342D01*
X55395714Y-40269342D02*
X55395714Y-40031247D01*
X55395714Y-40031247D02*
X55348095Y-39936009D01*
X55348095Y-39936009D02*
X55300476Y-39888390D01*
X55300476Y-39888390D02*
X55205238Y-39840771D01*
X55205238Y-39840771D02*
X55014762Y-39840771D01*
X55014762Y-39840771D02*
X54919524Y-39888390D01*
X54919524Y-39888390D02*
X54871905Y-39936009D01*
X54871905Y-39936009D02*
X54824286Y-40031247D01*
X55064819Y-46386666D02*
X55064819Y-46958094D01*
X55064819Y-46672380D02*
X54064819Y-46672380D01*
X54064819Y-46672380D02*
X54207676Y-46767618D01*
X54207676Y-46767618D02*
X54302914Y-46862856D01*
X54302914Y-46862856D02*
X54350533Y-46958094D01*
X54064819Y-45767618D02*
X54064819Y-45672380D01*
X54064819Y-45672380D02*
X54112438Y-45577142D01*
X54112438Y-45577142D02*
X54160057Y-45529523D01*
X54160057Y-45529523D02*
X54255295Y-45481904D01*
X54255295Y-45481904D02*
X54445771Y-45434285D01*
X54445771Y-45434285D02*
X54683866Y-45434285D01*
X54683866Y-45434285D02*
X54874342Y-45481904D01*
X54874342Y-45481904D02*
X54969580Y-45529523D01*
X54969580Y-45529523D02*
X55017200Y-45577142D01*
X55017200Y-45577142D02*
X55064819Y-45672380D01*
X55064819Y-45672380D02*
X55064819Y-45767618D01*
X55064819Y-45767618D02*
X55017200Y-45862856D01*
X55017200Y-45862856D02*
X54969580Y-45910475D01*
X54969580Y-45910475D02*
X54874342Y-45958094D01*
X54874342Y-45958094D02*
X54683866Y-46005713D01*
X54683866Y-46005713D02*
X54445771Y-46005713D01*
X54445771Y-46005713D02*
X54255295Y-45958094D01*
X54255295Y-45958094D02*
X54160057Y-45910475D01*
X54160057Y-45910475D02*
X54112438Y-45862856D01*
X54112438Y-45862856D02*
X54064819Y-45767618D01*
X54064819Y-44815237D02*
X54064819Y-44719999D01*
X54064819Y-44719999D02*
X54112438Y-44624761D01*
X54112438Y-44624761D02*
X54160057Y-44577142D01*
X54160057Y-44577142D02*
X54255295Y-44529523D01*
X54255295Y-44529523D02*
X54445771Y-44481904D01*
X54445771Y-44481904D02*
X54683866Y-44481904D01*
X54683866Y-44481904D02*
X54874342Y-44529523D01*
X54874342Y-44529523D02*
X54969580Y-44577142D01*
X54969580Y-44577142D02*
X55017200Y-44624761D01*
X55017200Y-44624761D02*
X55064819Y-44719999D01*
X55064819Y-44719999D02*
X55064819Y-44815237D01*
X55064819Y-44815237D02*
X55017200Y-44910475D01*
X55017200Y-44910475D02*
X54969580Y-44958094D01*
X54969580Y-44958094D02*
X54874342Y-45005713D01*
X54874342Y-45005713D02*
X54683866Y-45053332D01*
X54683866Y-45053332D02*
X54445771Y-45053332D01*
X54445771Y-45053332D02*
X54255295Y-45005713D01*
X54255295Y-45005713D02*
X54160057Y-44958094D01*
X54160057Y-44958094D02*
X54112438Y-44910475D01*
X54112438Y-44910475D02*
X54064819Y-44815237D01*
X60833095Y-41999819D02*
X60833095Y-42809342D01*
X60833095Y-42809342D02*
X60880714Y-42904580D01*
X60880714Y-42904580D02*
X60928333Y-42952200D01*
X60928333Y-42952200D02*
X61023571Y-42999819D01*
X61023571Y-42999819D02*
X61214047Y-42999819D01*
X61214047Y-42999819D02*
X61309285Y-42952200D01*
X61309285Y-42952200D02*
X61356904Y-42904580D01*
X61356904Y-42904580D02*
X61404523Y-42809342D01*
X61404523Y-42809342D02*
X61404523Y-41999819D01*
X62309285Y-42333152D02*
X62309285Y-42999819D01*
X62071190Y-41952200D02*
X61833095Y-42666485D01*
X61833095Y-42666485D02*
X62452142Y-42666485D01*
X83989104Y-67992142D02*
X83989104Y-67515952D01*
X84274819Y-68087380D02*
X83274819Y-67754047D01*
X83274819Y-67754047D02*
X84274819Y-67420714D01*
X83274819Y-67230237D02*
X83274819Y-66658809D01*
X84274819Y-66944523D02*
X83274819Y-66944523D01*
X83751009Y-65992142D02*
X83751009Y-66325475D01*
X84274819Y-66325475D02*
X83274819Y-66325475D01*
X83274819Y-66325475D02*
X83274819Y-65849285D01*
X84274819Y-64944523D02*
X84274819Y-65515951D01*
X84274819Y-65230237D02*
X83274819Y-65230237D01*
X83274819Y-65230237D02*
X83417676Y-65325475D01*
X83417676Y-65325475D02*
X83512914Y-65420713D01*
X83512914Y-65420713D02*
X83560533Y-65515951D01*
X83274819Y-64039761D02*
X83274819Y-64515951D01*
X83274819Y-64515951D02*
X83751009Y-64563570D01*
X83751009Y-64563570D02*
X83703390Y-64515951D01*
X83703390Y-64515951D02*
X83655771Y-64420713D01*
X83655771Y-64420713D02*
X83655771Y-64182618D01*
X83655771Y-64182618D02*
X83703390Y-64087380D01*
X83703390Y-64087380D02*
X83751009Y-64039761D01*
X83751009Y-64039761D02*
X83846247Y-63992142D01*
X83846247Y-63992142D02*
X84084342Y-63992142D01*
X84084342Y-63992142D02*
X84179580Y-64039761D01*
X84179580Y-64039761D02*
X84227200Y-64087380D01*
X84227200Y-64087380D02*
X84274819Y-64182618D01*
X84274819Y-64182618D02*
X84274819Y-64420713D01*
X84274819Y-64420713D02*
X84227200Y-64515951D01*
X84227200Y-64515951D02*
X84179580Y-64563570D01*
X83274819Y-63373094D02*
X83274819Y-63277856D01*
X83274819Y-63277856D02*
X83322438Y-63182618D01*
X83322438Y-63182618D02*
X83370057Y-63134999D01*
X83370057Y-63134999D02*
X83465295Y-63087380D01*
X83465295Y-63087380D02*
X83655771Y-63039761D01*
X83655771Y-63039761D02*
X83893866Y-63039761D01*
X83893866Y-63039761D02*
X84084342Y-63087380D01*
X84084342Y-63087380D02*
X84179580Y-63134999D01*
X84179580Y-63134999D02*
X84227200Y-63182618D01*
X84227200Y-63182618D02*
X84274819Y-63277856D01*
X84274819Y-63277856D02*
X84274819Y-63373094D01*
X84274819Y-63373094D02*
X84227200Y-63468332D01*
X84227200Y-63468332D02*
X84179580Y-63515951D01*
X84179580Y-63515951D02*
X84084342Y-63563570D01*
X84084342Y-63563570D02*
X83893866Y-63611189D01*
X83893866Y-63611189D02*
X83655771Y-63611189D01*
X83655771Y-63611189D02*
X83465295Y-63563570D01*
X83465295Y-63563570D02*
X83370057Y-63515951D01*
X83370057Y-63515951D02*
X83322438Y-63468332D01*
X83322438Y-63468332D02*
X83274819Y-63373094D01*
X83370057Y-62658808D02*
X83322438Y-62611189D01*
X83322438Y-62611189D02*
X83274819Y-62515951D01*
X83274819Y-62515951D02*
X83274819Y-62277856D01*
X83274819Y-62277856D02*
X83322438Y-62182618D01*
X83322438Y-62182618D02*
X83370057Y-62134999D01*
X83370057Y-62134999D02*
X83465295Y-62087380D01*
X83465295Y-62087380D02*
X83560533Y-62087380D01*
X83560533Y-62087380D02*
X83703390Y-62134999D01*
X83703390Y-62134999D02*
X84274819Y-62706427D01*
X84274819Y-62706427D02*
X84274819Y-62087380D01*
X83989104Y-61706427D02*
X83989104Y-61230237D01*
X84274819Y-61801665D02*
X83274819Y-61468332D01*
X83274819Y-61468332D02*
X84274819Y-61134999D01*
X84227200Y-60849284D02*
X84274819Y-60706427D01*
X84274819Y-60706427D02*
X84274819Y-60468332D01*
X84274819Y-60468332D02*
X84227200Y-60373094D01*
X84227200Y-60373094D02*
X84179580Y-60325475D01*
X84179580Y-60325475D02*
X84084342Y-60277856D01*
X84084342Y-60277856D02*
X83989104Y-60277856D01*
X83989104Y-60277856D02*
X83893866Y-60325475D01*
X83893866Y-60325475D02*
X83846247Y-60373094D01*
X83846247Y-60373094D02*
X83798628Y-60468332D01*
X83798628Y-60468332D02*
X83751009Y-60658808D01*
X83751009Y-60658808D02*
X83703390Y-60754046D01*
X83703390Y-60754046D02*
X83655771Y-60801665D01*
X83655771Y-60801665D02*
X83560533Y-60849284D01*
X83560533Y-60849284D02*
X83465295Y-60849284D01*
X83465295Y-60849284D02*
X83370057Y-60801665D01*
X83370057Y-60801665D02*
X83322438Y-60754046D01*
X83322438Y-60754046D02*
X83274819Y-60658808D01*
X83274819Y-60658808D02*
X83274819Y-60420713D01*
X83274819Y-60420713D02*
X83322438Y-60277856D01*
%TO.C,XA1*%
X34925000Y-27900000D02*
X34925000Y-81240000D01*
X34925000Y-27900000D02*
X99441000Y-27900000D01*
X34925000Y-81240000D02*
X100965000Y-81240000D01*
X99441000Y-27900000D02*
X100965000Y-29424000D01*
X100965000Y-40600000D02*
X100965000Y-29424000D01*
X100965000Y-79970000D02*
X103505000Y-77430000D01*
X100965000Y-81240000D02*
X100965000Y-79970000D01*
X103505000Y-43140000D02*
X100965000Y-40600000D01*
X103505000Y-77430000D02*
X103505000Y-43140000D01*
%TO.C,C4*%
D12*
X69770000Y-39270000D02*
X75010000Y-39270000D01*
X69770000Y-39607000D02*
X69770000Y-39270000D01*
X69770000Y-42010000D02*
X69770000Y-41673000D01*
X75010000Y-39270000D02*
X75010000Y-39607000D01*
X75010000Y-41673000D02*
X75010000Y-42010000D01*
X75010000Y-42010000D02*
X69770000Y-42010000D01*
%TO.C,R2*%
X48160000Y-42450000D02*
X48160000Y-48990000D01*
X48160000Y-48990000D02*
X48490000Y-48990000D01*
X48490000Y-42450000D02*
X48160000Y-42450000D01*
X50570000Y-42450000D02*
X50900000Y-42450000D01*
X50900000Y-42450000D02*
X50900000Y-48990000D01*
X50900000Y-48990000D02*
X50570000Y-48990000D01*
%TO.C,C5*%
X68500000Y-68480000D02*
X73740000Y-68480000D01*
X68500000Y-68817000D02*
X68500000Y-68480000D01*
X68500000Y-71220000D02*
X68500000Y-70883000D01*
X73740000Y-68480000D02*
X73740000Y-68817000D01*
X73740000Y-70883000D02*
X73740000Y-71220000D01*
X73740000Y-71220000D02*
X68500000Y-71220000D01*
%TO.C,R3*%
X93880000Y-36100000D02*
X93880000Y-42640000D01*
X93880000Y-42640000D02*
X94210000Y-42640000D01*
X94210000Y-36100000D02*
X93880000Y-36100000D01*
X96290000Y-36100000D02*
X96620000Y-36100000D01*
X96620000Y-36100000D02*
X96620000Y-42640000D01*
X96620000Y-42640000D02*
X96290000Y-42640000D01*
%TO.C,R1*%
X48160000Y-56420000D02*
X48490000Y-56420000D01*
X48160000Y-62960000D02*
X48160000Y-56420000D01*
X48490000Y-62960000D02*
X48160000Y-62960000D01*
X50570000Y-62960000D02*
X50900000Y-62960000D01*
X50900000Y-56420000D02*
X50570000Y-56420000D01*
X50900000Y-62960000D02*
X50900000Y-56420000D01*
%TO.C,R5*%
X86260000Y-36100000D02*
X86260000Y-42640000D01*
X86260000Y-42640000D02*
X86590000Y-42640000D01*
X86590000Y-36100000D02*
X86260000Y-36100000D01*
X88670000Y-36100000D02*
X89000000Y-36100000D01*
X89000000Y-36100000D02*
X89000000Y-42640000D01*
X89000000Y-42640000D02*
X88670000Y-42640000D01*
%TO.C,R4*%
X90070000Y-36100000D02*
X90070000Y-42640000D01*
X90070000Y-42640000D02*
X90400000Y-42640000D01*
X90400000Y-36100000D02*
X90070000Y-36100000D01*
X92480000Y-36100000D02*
X92810000Y-36100000D01*
X92810000Y-36100000D02*
X92810000Y-42640000D01*
X92810000Y-42640000D02*
X92480000Y-42640000D01*
%TO.C,C2*%
X83720000Y-53260000D02*
X84057000Y-53260000D01*
X83720000Y-58500000D02*
X83720000Y-53260000D01*
X84057000Y-58500000D02*
X83720000Y-58500000D01*
X86123000Y-53260000D02*
X86460000Y-53260000D01*
X86460000Y-53260000D02*
X86460000Y-58500000D01*
X86460000Y-58500000D02*
X86123000Y-58500000D01*
%TO.C,C3*%
X54510000Y-53220000D02*
X54847000Y-53220000D01*
X54510000Y-58460000D02*
X54510000Y-53220000D01*
X54847000Y-58460000D02*
X54510000Y-58460000D01*
X56913000Y-53220000D02*
X57250000Y-53220000D01*
X57250000Y-53220000D02*
X57250000Y-58460000D01*
X57250000Y-58460000D02*
X56913000Y-58460000D01*
%TO.C,R6*%
X53240000Y-42450000D02*
X53240000Y-48990000D01*
X53240000Y-48990000D02*
X53570000Y-48990000D01*
X53570000Y-42450000D02*
X53240000Y-42450000D01*
X55650000Y-42450000D02*
X55980000Y-42450000D01*
X55980000Y-42450000D02*
X55980000Y-48990000D01*
X55980000Y-48990000D02*
X55650000Y-48990000D01*
%TO.C,U4*%
X58845000Y-44605000D02*
X58845000Y-67305000D01*
X58845000Y-67305000D02*
X82545000Y-67305000D01*
X59845000Y-43605000D02*
X58845000Y-44605000D01*
X69695000Y-43605000D02*
X59845000Y-43605000D01*
X82545000Y-43605000D02*
X71695000Y-43605000D01*
X82545000Y-67305000D02*
X82545000Y-43605000D01*
%TD*%
M02*
